HIERARCHY
ROOT SpineBase
{
  OFFSET 0.000000 0.000000 0.000000
  CHANNELS 6 Xposition Yposition Zposition Zrotation Xrotation Yrotation
  JOINT SpineMid
  {
    OFFSET 0.000000 35.500345 0.000000
    CHANNELS 3 Zrotation Xrotation Yrotation
    JOINT SpineShoulder
    {
      OFFSET -0.033129 26.175895 -0.961287
      CHANNELS 3 Zrotation Xrotation Yrotation
      JOINT Neck
      {
        OFFSET -0.037173 8.601748 -0.695416
        CHANNELS 3 Zrotation Xrotation Yrotation
        JOINT Head
        {
          OFFSET 2.127054 8.654330 3.998717
          CHANNELS 3 Zrotation Xrotation Yrotation
          End Site
          {
            OFFSET 0 0 0
          }
        }
      }
      JOINT ShoulderLeft
      {
        OFFSET -16.905426 -9.197401 -0.840399
        CHANNELS 3 Zrotation Xrotation Yrotation
        JOINT ElbowLeft
        {
          OFFSET -4.569468 -22.506899 8.916734
          CHANNELS 3 Zrotation Xrotation Yrotation
          JOINT WristLeft
          {
            OFFSET 0.456509 -10.863407 25.936904
            CHANNELS 3 Zrotation Xrotation Yrotation
            JOINT HandLeft
            {
              OFFSET 0.160101 -3.661930 9.092123
              CHANNELS 3 Zrotation Xrotation Yrotation
              JOINT HandTipLeft
              {
                OFFSET -0.871689 2.985121 1.139243
                CHANNELS 3 Zrotation Xrotation Yrotation
                End Site
                {
                  OFFSET 0 0 0
                }
              }
              JOINT ThumbLeft
              {
                OFFSET -1.520939 3.604684 -0.119875
                CHANNELS 3 Zrotation Xrotation Yrotation
                End Site
                {
                  OFFSET 0 0 0
                }
              }
            }
          }
        }
      }
      JOINT ShoulderRight
      {
        OFFSET 13.063460 -7.719537 -11.440291
        CHANNELS 3 Zrotation Xrotation Yrotation
        JOINT ElbowRight
        {
          OFFSET 7.872448 -21.190845 -2.108620
          CHANNELS 3 Zrotation Xrotation Yrotation
          JOINT WristRight
          {
            OFFSET -19.501755 -4.988564 7.655584
            CHANNELS 3 Zrotation Xrotation Yrotation
            JOINT HandRight
            {
              OFFSET 0.959179 3.498099 8.500623
              CHANNELS 3 Zrotation Xrotation Yrotation
              JOINT HandTipRight
              {
                OFFSET -0.366350 -0.069951 -0.774635
                CHANNELS 3 Zrotation Xrotation Yrotation
                End Site
                {
                  OFFSET 0 0 0
                }
              }
              JOINT ThumbRight
              {
                OFFSET -0.481718 0.185545 -2.517704
                CHANNELS 3 Zrotation Xrotation Yrotation
                End Site
                {
                  OFFSET 0 0 0
                }
              }
            }
          }
        }
      }
    }
  }
  JOINT HipLeft
  {
    OFFSET -6.806634 0.533129 -1.368663
    CHANNELS 3 Zrotation Xrotation Yrotation
    JOINT KneeLeft
    {
      OFFSET -2.697506 -35.152503 4.815390
      CHANNELS 3 Zrotation Xrotation Yrotation
      JOINT AnkleLeft
      {
        OFFSET -3.086121 -33.292337 0.730862
        CHANNELS 3 Zrotation Xrotation Yrotation
        JOINT FootLeft
        {
          OFFSET -4.044287 -3.654610 -14.134330
          CHANNELS 3 Zrotation Xrotation Yrotation
          End Site
          {
            OFFSET 0 0 0
          }
        }
      }
    }
  }
  JOINT HipRight
  {
    OFFSET 6.167978 0.987714 -6.683450
    CHANNELS 3 Zrotation Xrotation Yrotation
    JOINT KneeRight
    {
      OFFSET 2.121131 -32.248545 0.366319
      CHANNELS 3 Zrotation Xrotation Yrotation
      JOINT AnkleRight
      {
        OFFSET -1.375039 -37.813953 -2.026434
        CHANNELS 3 Zrotation Xrotation Yrotation
        JOINT FootRight
        {
          OFFSET -5.537083 -5.728320 -1.367215
          CHANNELS 3 Zrotation Xrotation Yrotation
          End Site
          {
            OFFSET 0 0 0
          }
        }
      }
    }
  }
}
MOTION
Frames: 16
Frame Time: 0.033333
27.442395 75.983728 326.951953 -0.000000 0.000000 22.275464 0.000000 -0.000000 -22.275464 -0.000000 0.000000 0.000000 -0.000000 0.000000 0.000000 0.000000 0.000000 0.000000 -0.000000 0.000000 0.000000 -0.000000 0.000000 0.000000 -0.000000 0.000000 0.000000 -0.000000 0.000000 0.000000 0.000000 0.000000 0.000000 0.000000 0.000000 0.000000 -0.000000 0.000000 0.000000 -0.000000 0.000000 0.000000 -0.000000 0.000000 0.000000 -0.000000 0.000000 0.000000 0.000000 0.000000 0.000000 0.000000 0.000000 0.000000 0.000000 -0.000000 -22.275464 -0.000000 0.000000 0.000000 -0.000000 0.000000 0.000000 0.000000 0.000000 0.000000 0.000000 -0.000000 -22.275464 -0.000000 0.000000 0.000000 -0.000000 0.000000 0.000000 0.000000 0.000000 0.000000
27.502216 76.012531 326.931601 0.036474 0.018516 22.234115 -0.040768 -0.003338 -22.234122 -0.000000 0.000000 0.000000 -0.000000 0.000000 0.000000 0.000000 0.000000 0.000000 -0.000000 0.000000 0.000000 -0.000000 0.000000 0.000000 -0.000000 0.000000 0.000000 -0.000000 0.000000 0.000000 0.000000 0.000000 0.000000 0.000000 0.000000 0.000000 -0.000000 0.000000 0.000000 -0.000000 0.000000 0.000000 -0.000000 0.000000 0.000000 -0.000000 0.000000 0.000000 0.000000 0.000000 0.000000 0.000000 0.000000 0.000000 -0.040768 -0.003338 -22.234122 -0.000000 0.000000 0.000000 -0.000000 0.000000 0.000000 0.000000 0.000000 0.000000 -0.040768 -0.003338 -22.234122 -0.000000 0.000000 0.000000 2.369140 19.568095 -19.469267 0.000000 0.000000 0.000000
27.560891 76.037482 326.914133 0.061045 0.028075 22.183300 -0.067126 -0.002948 -22.183317 -0.000000 0.000000 0.000000 -0.538669 -0.738761 0.427772 0.000000 0.000000 0.000000 -0.000000 0.000000 0.000000 -0.000000 0.000000 0.000000 -0.000000 0.000000 0.000000 -0.000000 0.000000 0.000000 0.000000 0.000000 0.000000 0.000000 0.000000 0.000000 -0.000000 0.000000 0.000000 -0.000000 0.000000 0.000000 -0.000000 0.000000 0.000000 -0.000000 0.000000 0.000000 0.000000 0.000000 0.000000 0.000000 0.000000 0.000000 -0.067126 -0.002948 -22.183317 -0.000000 0.000000 0.000000 -0.000000 0.000000 0.000000 0.000000 0.000000 0.000000 -0.067126 -0.002948 -22.183317 -0.000000 0.000000 0.000000 6.930256 29.708278 -31.869953 0.000000 0.000000 0.000000
27.618422 76.058583 326.899549 0.073691 0.028662 22.122995 -0.079059 0.001200 -22.123012 -0.000000 0.000000 0.000000 -0.684570 -1.027475 0.564213 0.000000 0.000000 0.000000 -0.000000 0.000000 0.000000 -0.000000 0.000000 0.000000 -0.000000 0.000000 0.000000 -0.000000 0.000000 0.000000 0.000000 0.000000 0.000000 0.000000 0.000000 0.000000 -0.000000 0.000000 0.000000 -0.000000 0.000000 0.000000 -0.000000 0.000000 0.000000 -0.000000 0.000000 0.000000 0.000000 0.000000 0.000000 0.000000 0.000000 0.000000 -0.079059 0.001200 -22.123012 -0.000000 0.000000 0.000000 -0.000000 0.000000 0.000000 0.000000 0.000000 0.000000 -0.079059 0.001200 -22.123012 -0.000000 0.000000 0.000000 10.164119 34.330149 -38.740358 0.000000 0.000000 0.000000
27.674809 76.075832 326.887849 0.074396 0.020267 22.053178 -0.076563 0.009149 -22.053185 -0.000000 0.000000 0.000000 -0.746893 -1.259543 0.648726 0.000000 0.000000 0.000000 -0.000000 0.000000 0.000000 -0.000000 0.000000 0.000000 -0.000000 0.000000 0.000000 -0.000000 0.000000 0.000000 0.000000 0.000000 0.000000 0.000000 0.000000 0.000000 0.727126 -0.494230 -0.252340 -0.729322 0.490983 0.258601 -0.000000 0.000000 0.000000 -0.000000 0.000000 0.000000 0.000000 0.000000 0.000000 0.000000 0.000000 0.000000 -0.076563 0.009149 -22.053185 -0.000000 0.000000 0.000000 -0.000000 0.000000 0.000000 0.000000 0.000000 0.000000 -0.076563 0.009149 -22.053185 -0.000000 0.000000 0.000000 11.613969 36.249657 -41.780334 0.000000 0.000000 0.000000
27.730051 76.089231 326.879032 0.063151 0.002884 21.973830 -0.059642 0.020955 -21.973821 -0.000000 0.000000 0.000000 -0.725059 -1.433476 0.681153 0.000000 0.000000 0.000000 -0.000000 0.000000 0.000000 -0.000000 0.000000 0.000000 -0.000000 0.000000 0.000000 -0.000000 0.000000 0.000000 0.000000 0.000000 0.000000 0.000000 0.000000 0.000000 0.870280 -0.708141 -0.343542 -0.874576 0.702828 0.354284 -0.000000 0.000000 0.000000 -0.000000 0.000000 0.000000 0.000000 0.000000 0.000000 0.000000 0.000000 0.000000 -0.059642 0.020955 -21.973821 -0.000000 0.000000 0.000000 -0.000000 0.000000 0.000000 0.000000 0.000000 0.000000 -0.059642 0.020955 -21.973821 -0.000000 0.000000 0.000000 11.383440 36.506702 -41.833649 0.000000 0.000000 0.000000
27.791765 76.101984 326.873423 0.059888 -0.026868 21.867924 -0.045572 0.047241 -21.867891 -0.000000 0.000000 0.000000 -0.690653 -1.554205 0.695083 0.000000 0.000000 0.000000 -0.000000 0.000000 0.000000 -0.000000 0.000000 0.000000 -0.000000 0.000000 0.000000 -0.000000 0.000000 0.000000 0.000000 0.000000 0.000000 0.000000 0.000000 0.000000 1.101601 -1.028138 -0.480411 -1.110358 1.018674 0.500167 -0.000000 0.000000 0.000000 -0.000000 0.000000 0.000000 0.000000 0.000000 0.000000 0.000000 0.000000 0.000000 -0.045572 0.047241 -21.867891 -0.000000 0.000000 0.000000 -0.000000 0.000000 0.000000 0.000000 0.000000 0.000000 -0.045572 0.047241 -21.867891 -0.861197 -0.040837 0.047318 9.090334 33.273844 -36.212863 0.000000 0.000000 0.000000
27.853962 76.110204 326.870436 0.016168 -0.071109 21.759123 0.011345 0.072036 -21.759120 -0.000000 0.000000 0.000000 -0.319968 -1.687495 0.561340 0.000000 0.000000 0.000000 -0.000000 0.000000 0.000000 -0.000000 0.000000 0.000000 -0.000000 0.000000 0.000000 -0.000000 0.000000 0.000000 0.000000 0.000000 0.000000 0.000000 0.000000 0.000000 1.221706 -1.345376 -0.605364 -1.830294 0.956706 1.156499 0.601418 0.363366 -0.512460 -0.000000 0.000000 0.000000 0.000000 0.000000 0.000000 0.000000 0.000000 0.000000 0.011345 0.072036 -21.759120 -0.000000 0.000000 0.000000 -0.000000 0.000000 0.000000 0.000000 0.000000 0.000000 0.011345 0.072036 -21.759120 -0.962228 -0.014829 0.051966 4.500600 27.856022 -27.832846 0.000000 0.000000 0.000000
27.899153 76.107991 326.870740 -0.062495 -0.114209 21.667931 0.100248 0.083064 -21.668066 -0.000000 0.000000 0.000000 0.128829 -1.748590 0.374987 0.000000 0.000000 0.000000 -0.000000 0.000000 0.000000 -0.000000 0.000000 0.000000 -0.000000 0.000000 0.000000 -0.000000 0.000000 0.000000 0.000000 0.000000 0.000000 0.000000 0.000000 0.000000 1.270271 -1.673416 -0.727626 -1.916976 1.260645 1.314868 0.633699 0.381722 -0.536209 -0.000000 0.000000 0.000000 0.000000 0.000000 0.000000 0.000000 0.000000 0.000000 0.100248 0.083064 -21.668066 -0.000000 0.000000 0.000000 -0.000000 0.000000 0.000000 0.000000 0.000000 0.000000 0.100248 0.083064 -21.668066 -1.059927 0.041762 0.055651 -1.267367 13.995138 -12.201882 0.000000 0.000000 0.000000
27.931239 76.101358 326.873785 -0.177689 -0.168131 21.565640 0.227050 0.091047 -21.566081 -0.000000 0.000000 0.000000 0.768862 -1.712822 0.077911 0.000000 0.000000 0.000000 -0.000000 0.000000 0.000000 -0.000000 0.000000 0.000000 -0.000000 0.000000 0.000000 -0.000000 0.000000 0.000000 0.000000 0.000000 0.000000 0.000000 0.000000 0.000000 1.269331 -1.930498 -0.820162 -1.925197 1.511730 1.421320 0.637040 0.384326 -0.541510 -0.000000 0.000000 0.000000 0.000000 0.000000 0.000000 0.000000 0.000000 0.000000 0.227050 0.091047 -21.566081 -0.000000 0.000000 0.000000 -0.000000 0.000000 0.000000 0.000000 0.000000 0.000000 0.227050 0.091047 -21.566081 -1.271869 0.053564 0.066780 -2.002145 10.000379 -8.320160 0.000000 0.000000 0.000000
27.973066 76.098518 326.872481 -0.288842 -0.225076 21.465805 0.351173 0.103761 -21.466690 -0.000000 0.000000 0.000000 1.266244 -1.589418 -0.178482 0.000000 0.000000 0.000000 -0.480249 -0.737939 -0.043388 0.479730 0.738277 0.037204 -0.000000 0.000000 0.000000 -0.000000 0.000000 0.000000 0.000000 0.000000 0.000000 0.000000 0.000000 0.000000 1.006739 -2.146730 -0.877680 -1.670002 1.727960 1.481104 0.639569 0.386458 -0.546171 -0.000000 0.000000 0.000000 0.000000 0.000000 0.000000 0.000000 0.000000 0.000000 0.351173 0.103761 -21.466690 -0.000000 0.000000 0.000000 -0.000000 0.000000 0.000000 0.000000 0.000000 0.000000 0.351173 0.103761 -21.466690 -1.424823 0.112851 0.073622 -1.308024 13.135196 -11.351226 0.000000 0.000000 0.000000
28.011271 76.091471 326.873421 -0.402485 -0.280363 21.362031 -0.348657 0.023748 -21.390004 -0.068192 0.055770 -0.038283 2.460841 -1.229957 -0.307585 0.000000 0.000000 0.000000 0.083730 -0.484449 -0.056691 0.719152 0.815491 0.114699 -0.000000 0.000000 0.000000 -0.000000 0.000000 0.000000 0.000000 0.000000 0.000000 0.000000 0.000000 0.000000 1.575917 -2.004608 -0.868649 -1.437511 1.917908 1.534342 0.639388 0.388035 -0.552809 -0.000000 0.000000 0.000000 0.000000 0.000000 0.000000 0.000000 0.000000 0.000000 0.476959 0.114486 -21.363492 -0.000000 0.000000 0.000000 -0.000000 0.000000 0.000000 0.000000 0.000000 0.000000 0.476959 0.114486 -21.363492 -1.407792 0.267951 0.068956 1.690108 22.137434 -20.932595 0.000000 0.000000 0.000000
28.051781 76.084756 326.876321 -0.486962 -0.329232 21.252356 -0.293082 0.036138 -21.282049 -0.048329 0.070941 -0.038253 2.737679 -1.349265 -0.393587 0.000000 0.000000 0.000000 -0.203778 -0.673682 -0.139139 1.022593 1.007847 0.192541 -0.000000 0.000000 0.000000 -0.000000 0.000000 0.000000 0.000000 0.000000 0.000000 0.000000 0.000000 0.000000 1.341691 -2.194387 -0.916936 -1.193945 2.109367 1.583997 0.642940 0.390560 -0.557467 -0.101938 0.000797 1.119348 0.000000 0.000000 0.000000 0.000000 0.000000 0.000000 0.573185 0.130319 -21.254407 -0.000000 0.000000 0.000000 -0.000000 0.000000 0.000000 0.000000 0.000000 0.000000 0.573185 0.130319 -21.254407 -1.335129 0.446120 0.060490 2.553184 23.443756 -22.786253 0.000000 0.000000 0.000000
28.085010 76.080764 326.886961 -0.615939 -0.403301 21.113842 -0.264792 0.032736 -21.148084 -0.041659 0.064135 -0.042417 3.634461 -1.308155 -0.749955 0.000000 0.000000 0.000000 -0.420367 -0.879429 -0.200690 1.332002 1.289056 0.252749 -0.000000 0.000000 0.000000 -0.000000 0.000000 0.000000 0.000000 0.000000 0.000000 0.000000 0.000000 0.000000 1.236872 -2.484258 -1.028597 -1.008912 2.470809 1.706829 0.646836 0.393427 -0.562971 -0.111958 -0.133733 1.955155 0.000000 0.000000 0.000000 0.000000 0.000000 0.000000 0.719868 0.154330 -21.116979 -0.000000 0.000000 0.000000 -0.000000 0.000000 0.000000 0.000000 0.000000 0.000000 0.719868 0.154330 -21.116979 -1.227061 0.620740 0.049801 10.760605 34.308745 -38.758735 0.000000 0.000000 0.000000
28.120603 76.082947 326.901488 -0.727761 -0.481164 20.971671 -0.225595 0.031067 -21.009603 -0.025407 0.059453 -0.044676 4.465162 -1.324585 -1.083460 0.000000 0.000000 0.000000 -0.656994 -1.130903 -0.251399 1.624758 1.612387 0.295996 -0.000000 0.000000 0.000000 -0.000000 0.000000 0.000000 0.000000 0.000000 0.000000 0.000000 0.000000 0.000000 1.094488 -2.805104 -1.154162 -0.825127 2.860347 1.838093 0.650579 0.395970 -0.567410 -0.108485 -0.243504 2.522877 0.000000 0.000000 0.000000 0.000000 0.000000 0.000000 0.851765 0.188786 -20.976131 -0.000000 0.000000 0.000000 -0.000000 0.000000 0.000000 0.000000 0.000000 0.000000 0.851765 0.188786 -20.976131 -0.985841 0.850872 0.029191 14.715034 37.198798 -45.218344 0.000000 0.000000 0.000000
28.159863 76.084395 326.921432 -0.779402 -0.558120 20.792463 -0.184242 0.024401 -20.831649 -0.010744 0.050796 -0.044345 4.882932 -1.132447 -1.317638 0.000000 0.000000 0.000000 -0.848326 -1.350641 -0.269064 1.810545 1.909756 0.302379 -0.000000 0.000000 0.000000 -0.000000 0.000000 0.000000 0.000000 0.000000 0.000000 0.000000 0.000000 0.000000 0.921762 -3.115060 -1.286593 -0.674212 3.246597 1.970291 0.653121 0.397883 -0.571175 -0.094230 -0.323275 2.811482 0.000000 0.000000 0.000000 0.000000 0.000000 0.000000 0.926770 0.245048 -20.798242 -0.000000 0.000000 0.000000 -0.000000 0.000000 0.000000 0.000000 0.000000 0.000000 0.151710 -0.329156 -20.858147 -0.116703 1.893453 0.065394 15.349620 37.296242 -46.344157 0.000000 0.000000 0.000000
